<svg xmlns="http://www.w3.org/2000/svg" viewBox="0 0 800 600" width="800" height="600" style="background:#001b3a;">
  <circle cx="6.666666666666761" cy="540.0" r="4" fill="#ffffff" />
  <text x="11.66666666666676" y="535.0" fill="#ffffff" font-size="10">42: 118.20,21.80</text>
  <circle cx="50.0" cy="473.3333333333333" r="4" fill="#ffffff" />
  <text x="55.0" y="468.3333333333333" fill="#ffffff" font-size="10">43: 119.50,23.80</text>
  <circle cx="93.33333333333323" cy="416.66666666666663" r="4" fill="#ffffff" />
  <text x="98.33333333333323" y="411.66666666666663" fill="#ffffff" font-size="10">44: 120.80,25.50</text>
  <circle cx="133.33333333333331" cy="350.0" r="4" fill="#ffffff" />
  <text x="138.33333333333331" y="345.0" fill="#ffffff" font-size="10">45: 122.00,27.50</text>
  <circle cx="153.33333333333314" cy="283.3333333333333" r="4" fill="#ffffff" />
  <text x="158.33333333333314" y="278.3333333333333" fill="#ffffff" font-size="10">46: 122.60,29.50</text>
  <circle cx="116.66666666666667" cy="226.66666666666669" r="4" fill="#ffffff" />
  <text x="121.66666666666667" y="221.66666666666669" fill="#ffffff" font-size="10">47: 121.50,31.20</text>
  <circle cx="166.66666666666669" cy="233.33333333333331" r="4" fill="#ffffff" />
  <text x="171.66666666666669" y="228.33333333333331" fill="#ffffff" font-size="10">48: 123.00,31.00</text>
  <circle cx="233.33333333333334" cy="239.99999999999994" r="4" fill="#ffffff" />
  <text x="238.33333333333334" y="234.99999999999994" fill="#ffffff" font-size="10">49: 125.00,30.80</text>
  <circle cx="306.6666666666668" cy="250.0" r="4" fill="#ffffff" />
  <text x="311.6666666666668" y="245.0" fill="#ffffff" font-size="10">50: 127.20,30.50</text>
  <circle cx="339.99999999999966" cy="253.33333333333337" r="4" fill="#ffffff" />
  <text x="344.99999999999966" y="248.33333333333337" fill="#ffffff" font-size="10">51: 128.20,30.40</text>
  <circle cx="376.6666666666671" cy="256.66666666666663" r="4" fill="#ffffff" />
  <text x="381.6666666666671" y="251.66666666666663" fill="#ffffff" font-size="10">52: 129.30,30.30</text>
  <circle cx="413.33333333333354" cy="250.0" r="4" fill="#ffffff" />
  <text x="418.33333333333354" y="245.0" fill="#ffffff" font-size="10">53: 130.40,30.50</text>
  <circle cx="439.9999999999996" cy="236.66666666666669" r="4" fill="#ffffff" />
  <text x="444.9999999999996" y="231.66666666666669" fill="#ffffff" font-size="10">54: 131.20,30.90</text>
  <circle cx="500.0" cy="210.00000000000006" r="4" fill="#ffffff" />
  <text x="505.0" y="205.00000000000006" fill="#ffffff" font-size="10">55: 133.00,31.70</text>
  <circle cx="566.6666666666667" cy="190.0000000000001" r="4" fill="#ffffff" />
  <text x="571.6666666666667" y="185.0000000000001" fill="#ffffff" font-size="10">56: 135.00,32.30</text>
  <circle cx="633.3333333333333" cy="170.00000000000006" r="4" fill="#ffffff" />
  <text x="638.3333333333333" y="165.00000000000006" fill="#ffffff" font-size="10">57: 137.00,32.90</text>
  <circle cx="680.0000000000001" cy="143.3333333333332" r="4" fill="#ffffff" />
  <text x="685.0000000000001" y="138.3333333333332" fill="#ffffff" font-size="10">58: 138.40,33.70</text>
  <circle cx="713.3333333333336" cy="116.66666666666663" r="4" fill="#ffffff" />
  <text x="718.3333333333336" y="111.66666666666663" fill="#ffffff" font-size="10">59: 139.40,34.50</text>
  <circle cx="725.0" cy="100.0" r="4" fill="#ffffff" />
  <text x="730.0" y="95.0" fill="#ffffff" font-size="10">60: 139.75,35.00</text>
  <circle cx="733.3333333333333" cy="100.0" r="4" fill="#ffffff" />
  <text x="738.3333333333333" y="95.0" fill="#ffffff" font-size="10">61: 140.00,35.00</text>
  <polyline points="6.666666666666761,540.0 50.0,473.3333333333333 93.33333333333323,416.66666666666663 133.33333333333331,350.0 153.33333333333314,283.3333333333333 116.66666666666667,226.66666666666669 166.66666666666669,233.33333333333331 233.33333333333334,239.99999999999994 306.6666666666668,250.0 339.99999999999966,253.33333333333337 376.6666666666671,256.66666666666663 413.33333333333354,250.0 439.9999999999996,236.66666666666669 500.0,210.00000000000006 566.6666666666667,190.0000000000001 633.3333333333333,170.00000000000006 680.0000000000001,143.3333333333332 713.3333333333336,116.66666666666663 725.0,100.0 733.3333333333333,100.0" fill="none" stroke="#f59e0b" stroke-width="2" />
</svg>